<svg width="100" height="80" viewBox="0 0 100 80" fill="none" xmlns="http://www.w3.org/2000/svg">
<path d="M73.7085 58.9834C71.0897 58.9834 69.5366 57.6376 69.4177 55.6994H71.9216C71.9216 56.3455 72.2781 57.2055 73.8274 57.2589C74.9011 57.2589 75.4952 56.613 75.4952 56.1274C75.3763 55.3742 74.4216 55.3208 73.4707 55.1562C72.397 54.9999 71.5651 54.7817 70.9668 54.5143C70.1349 54.0822 69.6554 53.1645 69.6554 52.1975C69.6554 50.4731 71.0897 49.1273 73.5896 49.1273C75.9748 49.1273 77.5238 50.3663 77.6385 52.251H75.2576C75.2576 51.7692 75.1387 50.9588 73.7083 50.9588C72.7535 50.9588 72.1594 51.1192 72.0405 51.8187C72.0405 52.79 74.065 52.7364 75.6141 53.1109C77.0443 53.4896 77.9991 54.4031 77.9991 55.6994C77.9991 58.0698 76.0935 58.9834 73.7085 58.9834ZM28.0801 43.0802L36.301 38.2859L40.7105 45.8828H29.6292" fill="white"/>
<path fill-rule="evenodd" clip-rule="evenodd" d="M46.5677 49.1091V58.6975H44.1621V49.1091H46.5677Z" fill="white"/>
<path d="M24.2623 54.0451C24.2623 55.5512 25.5736 56.79 26.9997 56.79C28.5529 56.79 29.7414 55.5512 29.7414 54.0451C29.7414 52.5925 28.5529 51.3003 26.9997 51.3003C25.5736 51.3003 24.2623 52.5925 24.2623 54.0451ZM26.881 58.9999C24.2621 58.9999 22 56.79 22 54.0451C22 51.3003 24.2623 49.144 26.881 49.144C27.9547 49.144 28.9094 49.4156 29.7414 50.004V49.2509H32.1265V58.7817H29.7416V58.1892C29.0285 58.7283 27.9548 58.9999 26.8812 58.9999H26.881ZM58.7001 45.8805L47.2623 25.8477L55.483 21L69.7814 45.8805H58.7001ZM35.2247 54.0451C35.2247 55.5512 36.4175 56.79 37.9664 56.79C39.3925 56.79 40.7081 55.5512 40.7081 54.0451C40.7081 52.5925 39.3925 51.3003 37.9664 51.3003C36.4173 51.3003 35.2247 52.5925 35.2247 54.0451ZM37.8475 58.9999C35.1058 58.9999 32.9626 56.79 32.9626 54.0451C32.9626 51.3003 35.1058 49.144 37.8475 49.144C38.917 49.144 39.872 49.4156 40.7081 50.004V45.9669H43.0891V58.7817H40.7079V58.1892C39.8718 58.7283 38.917 58.9999 37.8473 58.9999H37.8475ZM37.7301 34.5178L46.0697 29.7813L55.2455 45.88H46.5453V48.2503H44.1641V45.88L37.7301 34.5178ZM76.4519 48.3249C75.8536 48.3249 75.2595 47.7858 75.2595 47.1397C75.2595 46.4936 75.8536 45.9546 76.4519 45.9546C77.1649 45.9546 77.6446 46.4938 77.6446 47.1397C77.6446 47.7856 77.1649 48.3251 76.4519 48.3251V48.3249ZM76.4519 46.1193C75.8536 46.1193 75.4971 46.6007 75.4971 47.1397C75.4971 47.6788 75.8536 48.1645 76.4519 48.1645C77.0462 48.1645 77.4027 47.679 77.4027 47.1397C77.4027 46.6005 77.0462 46.1193 76.4519 46.1193Z" fill="white"/>
<path d="M76.6974 47.7901L76.4596 47.251H76.2219V47.7901H76.0416V46.4979H76.5785C76.6974 46.4979 76.935 46.6626 76.935 46.8765C76.935 47.0904 76.8161 47.1976 76.6974 47.251L76.935 47.7901H76.6974ZM76.4596 46.6626H76.2219V47.0905H76.4596C76.6974 47.0905 76.6974 47.0371 76.6974 46.8765C76.6974 46.7655 76.6974 46.6626 76.4596 46.6626ZM60.7145 54.0452C60.7145 55.5513 61.9073 56.7901 63.4562 56.7901C64.8864 56.7901 66.1938 55.5513 66.1938 54.0452C66.1938 52.5926 64.8864 51.3004 63.4562 51.3004C61.9071 51.3004 60.7145 52.5926 60.7145 54.0452ZM63.3334 59C60.5958 59 58.4524 56.7901 58.4524 54.0452C58.4524 51.3004 60.5958 49.1441 63.3332 49.1441C64.4071 49.1441 65.3618 49.4157 66.1938 50.0041V49.251H68.46V58.7818H66.194V58.1893C65.3618 58.7284 64.4071 59 63.3332 59H63.3334ZM49.7604 54.0452C49.7604 55.5513 51.0717 56.7901 52.5019 56.7901C54.0511 56.7901 55.2435 55.5513 55.2435 54.0452C55.2435 52.5926 54.051 51.3004 52.5019 51.3004C51.0717 51.3004 49.7604 52.5926 49.7604 54.0452ZM55.2435 45.967H57.6246V58.7818H55.2435V58.1893C54.5264 58.7284 53.5716 59 52.5019 59C49.7604 59 47.498 56.7901 47.498 54.0452C47.498 51.3004 49.7604 49.1441 52.5019 49.1441C53.5714 49.1441 54.5264 49.4157 55.2435 50.0041V45.967Z" fill="white"/>
</svg>
