<svg width="100" height="80" viewBox="0 0 100 80" fill="none" xmlns="http://www.w3.org/2000/svg">
<path d="M41.2407 37.3786H37.8372C36.2599 37.3786 35.5128 37.1074 35.5128 36.4746V33.5818C35.5128 33.0394 36.2599 32.6778 37.8372 32.6778H41.2407C42.8179 32.6778 43.565 32.949 43.565 33.5818V36.4746C43.565 37.1074 42.8179 37.3786 41.2407 37.3786ZM41.2407 38.7346C44.0631 38.7346 45.4743 37.921 45.4743 36.3842V33.6722C45.4743 32.045 44.0631 31.3218 41.2407 31.3218H37.8372C35.0147 31.3218 33.6035 32.1354 33.6035 33.6722V36.3842C33.6035 38.0114 35.0147 38.7346 37.8372 38.7346H41.2407Z" fill="white"/>
<path d="M77.7661 37.3786H74.3625C72.7853 37.3786 72.0382 37.1074 72.0382 36.4746V33.5818C72.0382 33.0394 72.7853 32.6778 74.3625 32.6778H77.7661C79.3433 32.6778 80.0904 32.949 80.0904 33.5818V36.4746C80.0904 37.1074 79.3433 37.3786 77.7661 37.3786ZM77.7661 38.7346C80.5885 38.7346 81.9997 37.921 81.9997 36.3842V33.6722C81.9997 32.045 80.5885 31.3218 77.7661 31.3218H74.3625C71.5401 31.3218 70.1289 32.1354 70.1289 33.6722V36.3842C70.1289 38.0114 71.5401 38.7346 74.3625 38.7346H77.7661Z" fill="white"/>
<path d="M31.6951 36.3842V34.4858C31.6951 34.1242 31.4461 33.9434 30.948 33.9434H26.7974C26.3823 33.9434 26.1333 34.305 26.1333 34.6666C26.1333 35.0282 26.4653 35.3898 26.7974 35.3898H29.6198V36.3842C29.6198 36.6554 29.2877 37.017 28.6236 37.1074C28.1256 37.2882 27.7105 37.2882 27.2954 37.2882H22.7298C20.9035 37.2882 19.9903 36.9266 19.9903 36.2938V31.6834C19.9903 31.0506 21.0695 30.7794 23.2278 30.7794H24.473C24.9711 30.7794 25.2201 30.5082 25.2201 30.0562C25.3031 29.6042 25.0541 29.333 24.556 29.333H22.7298C21.6506 29.333 20.6544 29.4234 19.7413 29.785C18.6621 30.1466 17.998 30.7794 17.998 31.6834V36.3842C17.998 37.2882 18.5791 37.921 19.6583 38.2826C20.4884 38.5538 21.4846 38.7346 22.7298 38.7346H27.2954C28.3746 38.7346 29.3708 38.5538 30.1179 38.2826C31.114 37.8306 31.6951 37.1978 31.6951 36.3842Z" fill="white"/>
<path d="M59.3386 33.0394C59.3386 33.7626 58.4254 34.0338 56.6822 34.0338H49.5431V30.689H56.6822C58.4254 30.689 59.3386 30.8698 59.3386 31.6834V33.0394ZM59.5876 29.6946C58.7575 29.5138 57.8443 29.333 56.6822 29.333H48.1319C47.7998 29.333 47.5508 29.6042 47.5508 29.9658V38.1922C47.5508 38.6442 47.7998 38.825 48.2979 38.825H48.879C49.3771 38.825 49.6261 38.6442 49.6261 38.1922V35.3898H56.7652C58.0104 35.3898 58.9235 35.209 59.7536 34.9378C60.8328 34.4858 61.4139 33.853 61.4139 32.8586V31.4122C61.3309 30.689 60.7498 30.1466 59.5876 29.6946Z" fill="white"/>
<path d="M68.053 31.3218C66.3098 31.3218 65.5626 31.3218 64.4835 31.7738C63.4873 32.2258 63.0723 32.949 63.0723 33.6722V38.1922C63.0723 38.5538 63.3213 38.825 63.7364 38.825H64.3175C64.7325 38.825 64.9816 38.6442 64.9816 38.1922V33.6722C64.9816 33.0394 65.7287 32.7682 67.2229 32.7682H68.053C68.5511 32.7682 68.8001 32.497 68.8001 32.045C68.7171 31.593 68.4681 31.3218 68.053 31.3218Z" fill="white"/>
<path opacity="0.8" d="M31.8611 41.0847H17.998V50.6671H31.8611V41.0847Z" fill="white"/>
<path opacity="0.8" d="M48.5467 41.0847H34.6836V50.6671H48.5467V41.0847Z" fill="white"/>
<path d="M65.2303 41.0847H51.3672V50.6671H65.2303V41.0847Z" fill="white"/>
<path opacity="0.1" d="M81.9178 41.0847H68.0547V50.6671H81.9178V41.0847Z" fill="white"/>
</svg>
