<svg width="100" height="80" viewBox="0 0 100 80" fill="none" xmlns="http://www.w3.org/2000/svg">
<path d="M15.7658 48.8751C11.2226 48.8751 7.54164 44.9001 7.54164 39.9941C7.54164 35.088 11.2226 31.113 15.7658 31.113C20.309 31.113 23.9789 35.088 23.9789 39.9941C23.9789 44.9001 20.2979 48.8751 15.7658 48.8751ZM15.7658 30.54C10.9242 30.54 7 34.7776 7 40.006C7 45.2344 10.9242 49.46 15.7658 49.46C20.5964 49.46 24.5206 45.2224 24.5206 40.006C24.5206 34.7896 20.5964 30.54 15.7658 30.54Z" fill="white"/>
<path d="M8.21875 39.9343C11.2144 40.949 14.0331 44.1003 14.8843 48.123C10.6727 47.5381 8.2298 43.8138 8.21875 39.9343Z" fill="white"/>
<path d="M23.2691 39.9343C20.2845 40.949 17.4215 44.1003 16.6035 48.123C20.804 47.5381 23.258 43.8138 23.2691 39.9343Z" fill="white"/>
<path d="M15.7555 48.1352C12.572 42.8233 13.2573 35.5417 15.7555 31.6145C18.1432 35.5298 18.8838 42.8233 15.7555 48.1352Z" fill="white"/>
<path d="M26.8867 31.6499H28.8212V34.4909H32.3584V31.6499H34.2929V39.0627H32.3584V35.8636H28.8212V39.0627H26.8867V31.6499Z" fill="white"/>
<path d="M35.8359 31.6499H42.3909V33.0226H37.7593V34.6103H42.0041V35.8756H37.7593V37.69H42.4794V39.0627H35.8359V31.6499Z" fill="white"/>
<path d="M43.6465 31.6499H48.3665C49.9362 31.6499 50.9311 32.569 50.9311 33.6911C50.9311 34.5625 50.5221 35.219 49.5493 35.5533V35.5771C50.4889 35.792 50.7652 36.556 50.8205 37.308C50.8537 37.7735 50.8316 38.6569 51.1853 39.0627H49.2619C49.0408 38.5972 49.0519 37.881 48.9524 37.2841C48.8197 36.5082 48.466 36.1621 47.4933 36.1621H45.5699V39.0627H43.6465V31.6499ZM45.5699 35.0042H47.6812C48.5545 35.0042 49.0077 34.6938 49.0077 33.9418C49.0077 33.2256 48.5545 32.9152 47.6812 32.9152H45.5699V35.0042Z" fill="white"/>
<path d="M52.3548 31.6499H56.4779C58.1471 31.6499 59.2746 32.1035 59.2746 33.4882C59.2746 34.2283 58.8545 34.7177 58.0808 35.04C59.164 35.3026 59.6836 35.9949 59.6836 36.9141C59.6836 38.4181 58.1692 39.0627 56.5885 39.0627H52.3438V31.6499H52.3548ZM56.2348 34.6461C56.9201 34.6461 57.4175 34.3835 57.4175 33.7627C57.4175 33.0704 56.7764 32.9152 56.091 32.9152H54.2892V34.6461H56.2348ZM56.3453 37.7974C57.097 37.7974 57.7712 37.5945 57.7712 36.8186C57.7712 36.0546 57.2186 35.7562 56.3895 35.7562H54.2892V37.7855H56.3453V37.7974Z" fill="white"/>
<path d="M63.0011 31.6499H64.9797L68.2517 39.0627H66.2509L65.5877 37.4154H62.3157L61.6304 39.0627H59.6738L63.0011 31.6499ZM65.0792 36.1979L63.9738 33.4762H63.9517L62.8132 36.1979H65.0792Z" fill="white"/>
<path d="M68.8555 31.6499H70.7899V37.69H75.0568V39.0627H68.8555V31.6499Z" fill="white"/>
<path d="M77.6636 31.6499H75.7402V39.0627H77.6636V31.6499Z" fill="white"/>
<path d="M79.2129 31.6499H85.381V33.0226H81.1473V34.7296H84.8173V35.9949H81.1473V39.0627H79.2129V31.6499Z" fill="white"/>
<path d="M86.3457 31.6499H92.9007V33.0226H88.2801V34.6103H92.5249V35.8756H88.2801V37.69H93.0002V39.0627H86.3457V31.6499Z" fill="white"/>
<path d="M26.8867 40.77H28.7991L32.4579 45.7358H32.4911V40.77H34.2929V48.1828H32.3584L28.7217 43.2171H28.6885V48.1828H26.8867V40.77Z" fill="white"/>
<path d="M43.3117 45.3777C43.3117 47.3831 41.9078 48.3619 39.5644 48.3619C37.1988 48.3619 35.8281 47.4069 35.8281 45.3777V40.77H37.7515V45.3777C37.7515 46.1894 37.9947 46.9892 39.5533 46.9892C40.924 46.9892 41.3662 46.4878 41.3662 45.3777V40.77H43.2896V45.3777H43.3117Z" fill="white"/>
<path d="M46.8698 42.1308H44.25V40.77H51.424V42.1308H48.8042V48.1828H46.8698V42.1308Z" fill="white"/>
<path d="M52.3867 40.77H57.1068C58.6764 40.77 59.6713 41.6892 59.6713 42.8112C59.6713 43.6826 59.2623 44.3392 58.2785 44.6734V44.6973C59.2181 44.9121 59.4944 45.6761 59.5497 46.4281C59.5829 46.8937 59.5608 47.777 59.9145 48.1828H57.9911C57.77 47.7173 57.7811 47.0011 57.6816 46.4042C57.5489 45.6283 57.1952 45.2822 56.2225 45.2822H54.3101V48.1828H52.3867V40.77ZM54.3101 44.1243H56.4214C57.2947 44.1243 57.7479 43.8139 57.7479 43.0619C57.7479 42.3457 57.2947 42.0353 56.4214 42.0353H54.3101V44.1243Z" fill="white"/>
<path d="M63.4234 40.77H61.5V48.1828H63.4234V40.77Z" fill="white"/>
<path d="M67.1777 42.1308H64.5469V40.77H71.732V42.1308H69.1011V48.1828H67.1777V42.1308Z" fill="white"/>
<path d="M74.7847 40.77H72.8613V48.1828H74.7847V40.77Z" fill="white"/>
<path d="M80.1509 40.5911C82.8481 40.5911 84.4619 42.298 84.4619 44.5064C84.4619 46.6431 82.8591 48.362 80.1509 48.362C77.4537 48.362 75.8398 46.655 75.8398 44.5064C75.8509 42.298 77.4537 40.5911 80.1509 40.5911ZM80.1509 46.9892C81.8864 46.9892 82.5275 45.7478 82.5275 44.5064C82.5275 43.2052 81.8753 41.9638 80.1509 41.9638C78.4265 41.9638 77.7743 43.2052 77.7743 44.5064C77.7743 45.7359 78.4265 46.9892 80.1509 46.9892Z" fill="white"/>
<path d="M85.5918 40.77H87.5152L91.163 45.7358H91.1962V40.77H92.998V48.1828H91.0746L87.4268 43.2171H87.3936V48.1828H85.5918V40.77Z" fill="white"/>
</svg>
