<svg width="100" height="80" viewBox="0 0 100 80" fill="none" xmlns="http://www.w3.org/2000/svg">
<path fill-rule="evenodd" clip-rule="evenodd" d="M18 26.6667L24.1298 53.3164C30.2835 49.793 42.9569 48.5574 50.0068 53.3334C57.0568 48.5676 69.7199 49.7964 75.8702 53.3164L82 26.6667H18ZM25.9516 33.1537V43.1673H33.0186V40.8183H29.3312V33.1537H25.9516ZM47.5476 33.1705H43.7849L48.0744 43.1535H52.0116L56.26 33.1705H52.5383L50.0857 39.8982L47.5476 33.1705ZM57.1993 33.1606V43.1606H60.5755V33.1606H57.1993ZM33.4447 38.2251C33.4447 33.5747 35.6373 32.9875 38.7261 32.9875C43.3713 32.9671 43.5903 34.9427 43.8331 37.2067C43.8536 37.4206 43.8981 38.8361 43.8536 39.2061H36.8858C36.8858 41.6234 38.3063 41.5708 38.6913 41.5566H38.6913H38.6913H38.6914H38.6914C38.7151 41.5557 38.7348 41.555 38.7501 41.555C39.6257 41.555 40.4809 41.185 40.4809 40.3364H43.8571C43.8522 40.3751 43.8474 40.4153 43.8425 40.4569L43.8424 40.4573L43.8424 40.4575C43.7111 41.5596 43.4635 43.6392 38.8595 43.6392C34.3853 43.6392 33.4447 42.0506 33.4447 38.2251ZM69.5296 32.9977C72.2866 32.9977 74.038 34.0161 74.2535 36.2292H70.7542C70.7542 35.7506 70.4053 34.8613 69.3962 34.8613C68.3871 34.8613 67.8432 35.1871 67.8432 35.9237C67.8432 36.7044 68.3016 36.9013 68.6539 36.9862C68.8284 37.0303 70.9286 37.3324 71.6298 37.4207C71.6586 37.4242 71.6922 37.4279 71.7302 37.4321L71.7303 37.4321C72.3804 37.5035 74.2955 37.7136 74.2535 39.7628C74.209 41.9319 72.8544 43.2761 69.4406 43.2761C66.0269 43.2761 64.4089 42.105 64.4089 40.1973H67.9082C67.9287 40.8694 68.3016 41.3684 69.3962 41.3684C70.4908 41.3684 71.0586 40.8932 71.0586 40.1532C71.0586 39.5897 70.5558 39.2842 70.0085 39.2435C69.9557 39.2395 69.8612 39.2357 69.735 39.2307L69.735 39.2307L69.7349 39.2307C69.0023 39.2014 67.2 39.1295 66.2663 38.7241C65.2914 38.2998 64.1729 37.6447 64.3644 35.9916C64.5833 34.0839 65.9858 32.9977 69.5296 32.9977ZM63.1667 35.153C64.1963 34.5895 64.2613 34.0871 64.2544 33.3268C64.2544 32.6309 63.6284 32.0675 62.8588 32.0675C62.0892 32.0675 61.4632 32.6309 61.4632 33.3268C61.4632 34.0227 62.0892 34.5861 62.8588 34.5861C63.0538 34.5861 63.2351 34.5522 63.4027 34.4877C63.4293 34.6486 63.3112 34.8731 63.2268 35.0337L63.2268 35.0337C63.2026 35.0797 63.1811 35.1205 63.1667 35.153Z" fill="white"/>
<path fill-rule="evenodd" clip-rule="evenodd" d="M36.9453 37.0947H40.5643C40.5849 35.7234 40.0615 34.9834 38.7206 34.9834C37.5166 34.9834 36.9453 35.7438 36.9453 37.0947Z" fill="white"/>
</svg>
