<svg width="177" height="100" viewBox="0 0 177 100" fill="none" xmlns="http://www.w3.org/2000/svg">
<path fill-rule="evenodd" clip-rule="evenodd" d="M140.663 58.5001C140.441 58.2779 140.163 58.1667 139.885 58.1667C139.607 58.1667 139.329 58.2779 139.107 58.5001C138.885 58.7223 138.773 59.0001 138.773 59.2779C138.773 59.6112 138.885 59.8334 139.107 60.0556C139.329 60.2779 139.607 60.389 139.885 60.389C140.163 60.389 140.441 60.2779 140.663 60.0556C140.886 59.8334 140.997 59.5556 140.997 59.2779C140.997 58.9445 140.886 58.7223 140.663 58.5001ZM140.552 59.9445C140.385 60.1112 140.163 60.2223 139.885 60.2223C139.607 60.2223 139.385 60.1112 139.218 59.9445C139.051 59.7779 138.94 59.5556 138.94 59.2779C138.94 59.0001 139.051 58.7779 139.218 58.6112C139.385 58.4445 139.607 58.3334 139.885 58.3334C140.163 58.3334 140.385 58.4445 140.552 58.6112C140.719 58.7779 140.83 59.0001 140.83 59.2779C140.83 59.5556 140.774 59.7779 140.552 59.9445Z" fill="white"/>
<path fill-rule="evenodd" clip-rule="evenodd" d="M140.39 59.8335V59.778C140.39 59.7224 140.39 59.7224 140.39 59.6669V59.5558C140.39 59.5002 140.39 59.4447 140.335 59.3891C140.279 59.3336 140.223 59.278 140.112 59.278C140.168 59.278 140.223 59.2224 140.279 59.2224C140.335 59.1669 140.39 59.1113 140.39 59.0002C140.39 58.8335 140.335 58.7224 140.223 58.6669C140.168 58.6113 140.057 58.6113 139.89 58.6113H139.445V59.8335H139.668V59.3335H139.834C139.946 59.3335 140.001 59.3336 140.057 59.3891C140.112 59.4447 140.168 59.5002 140.168 59.6669V59.778V59.8335H140.39ZM140.057 59.2224C140.001 59.2224 139.946 59.2224 139.834 59.2224H139.668V58.778H139.834C139.946 58.778 140.057 58.778 140.112 58.8336C140.168 58.8891 140.168 58.9447 140.168 59.0002C140.223 59.1113 140.168 59.1669 140.057 59.2224Z" fill="white"/>
<path fill-rule="evenodd" clip-rule="evenodd" d="M87.1901 47.2223H81.5205V39.1667H75.4062V60.5556H81.5205V52.4445H87.1901V60.5556H93.3043V39.1667H87.1901V47.2223Z" fill="white"/>
<path fill-rule="evenodd" clip-rule="evenodd" d="M108.043 60.5556H119.716V55.5556H114.157V52.4445H119.271V47.4445H114.157V44.389H119.716V39.1667H108.043V60.5556Z" fill="white"/>
<path fill-rule="evenodd" clip-rule="evenodd" d="M100.755 39.1667H94.6406V60.5556H106.869V55.5556H100.755V39.1667Z" fill="white"/>
<path fill-rule="evenodd" clip-rule="evenodd" d="M63.678 39C57.6193 39 52.6167 43.5556 52.6723 50C52.6723 56.6111 57.6193 61 63.678 61C69.7366 61 74.7392 56.4444 74.6836 50C74.6836 43.3333 69.7366 39 63.678 39ZM63.678 55.2778C60.9544 55.2778 58.731 53 58.7866 50C58.7866 46.6667 61.0099 44.7222 63.678 44.7222C66.4016 44.7222 68.5694 46.6667 68.5694 50C68.625 53.3333 66.4016 55.2778 63.678 55.2778Z" fill="white"/>
<path fill-rule="evenodd" clip-rule="evenodd" d="M55.6207 39.3889H48.1168L43.1142 46V39.3889H37V60.5556H43.1142V53.1667L48.7282 60.5556H56.5656L47.8945 49.5L55.6207 39.3889Z" fill="white"/>
<path fill-rule="evenodd" clip-rule="evenodd" d="M132.324 52.0555C132.991 51.6666 136.271 49.5555 135.826 45.1666C135.382 40.7777 131.935 39.3333 129.267 39.3333H120.93V60.4999H127.044V53.7221L131.546 60.4999H138.383L132.324 52.0555ZM128.378 48.1666H126.988V44.3333H128.489C129.434 44.3333 130.212 44.9999 130.212 46.1666C130.212 47.3333 129.823 48.1666 128.378 48.1666Z" fill="white"/>
</svg>
