<svg width="177" height="100" viewBox="0 0 177 100" fill="none" xmlns="http://www.w3.org/2000/svg">
<path d="M145.262 46.8691C145.456 46.9983 145.651 47.1489 145.802 47.3211C146.234 47.8161 146.471 48.4617 146.471 49.3011V55.5422H148.998V48.5478C148.998 47.9452 148.933 47.3857 148.739 46.8907C148.566 46.3526 148.285 45.8792 147.897 45.5133C147.119 44.717 146.083 44.3081 144.765 44.3081C143.448 44.3081 142.39 44.8246 141.591 45.8146V40.3267H139.043V55.5638H141.591V49.3226C141.591 48.4617 141.807 47.7946 142.261 47.3211C142.433 47.1489 142.606 46.9983 142.8 46.8907C143.124 46.7185 143.556 46.5894 144.031 46.5894C144.485 46.5894 144.917 46.697 145.262 46.8691Z" fill="white"/>
<path d="M136.815 46.697V44.5233H134.31V40.3267H131.762V51.6899C131.762 53.1964 132.194 54.2725 133.079 54.9181C133.856 55.4992 135.109 55.822 136.815 55.822V53.6053C136.016 53.6053 135.433 53.4977 135.066 53.2825C134.547 52.9597 134.288 52.3356 134.288 51.4102V46.6755H136.815V46.697Z" fill="white"/>
<path d="M128.915 43.0167V40.5417H126.41V43.0167H128.915Z" fill="white"/>
<path d="M121.03 40.3267V45.7931C120.166 44.8031 118.914 44.2866 117.251 44.2866C115.869 44.2866 114.66 44.8031 113.688 45.7931C113.364 46.1374 113.083 46.5033 112.867 46.8907C112.349 47.7946 112.09 48.8276 112.09 50.0328V50.0973C112.09 51.8406 112.63 53.261 113.688 54.3371C114.66 55.327 115.847 55.8435 117.251 55.8435C118.762 55.8435 120.015 55.327 121.03 54.3371V55.6068H123.578V40.3267H121.03ZM121.095 50.0113V50.0758C121.095 51.1089 120.771 51.9482 120.123 52.6369C119.497 53.2825 118.741 53.6053 117.877 53.6053C116.97 53.6053 116.258 53.304 115.653 52.6584C115.027 51.9912 114.703 51.1304 114.703 50.0758V50.0113C114.703 48.9567 115.005 48.0959 115.653 47.4287C115.847 47.192 116.085 46.9983 116.344 46.8691C116.776 46.6109 117.316 46.4818 117.877 46.4818C118.439 46.4818 118.957 46.6109 119.389 46.8691C119.648 47.0413 119.885 47.2135 120.123 47.4502C120.749 48.1389 121.095 48.9998 121.095 50.0113Z" fill="white"/>
<path d="M126.41 44.5232V55.5636H128.937V44.5232H126.41Z" fill="white"/>
<path d="M110.34 46.8692C110.167 46.5894 109.973 46.3311 109.778 46.0729C108.828 44.8892 107.489 44.2866 105.805 44.2866C104.25 44.2866 102.954 44.8462 101.918 45.9868C101.659 46.2881 101.421 46.5679 101.248 46.8907C100.687 47.8161 100.406 48.8707 100.406 50.0759V50.1189C100.406 51.7976 100.946 53.1749 102.026 54.2725C103.106 55.3271 104.444 55.8651 106.064 55.8651C107.943 55.8651 109.454 55.1764 110.599 53.7775L109.087 52.4647C108.18 53.3471 107.208 53.7775 106.107 53.7775C105.265 53.7775 104.574 53.5408 103.991 53.0458C103.386 52.5508 103.041 51.8621 102.89 50.9798H111.031L111.074 50.2696C111.117 48.9352 110.858 47.8161 110.34 46.8692ZM107.424 46.8692L107.77 47.192C108.245 47.73 108.526 48.4187 108.612 49.2581H102.911C103.041 48.3972 103.343 47.687 103.861 47.149L104.185 46.8477C104.617 46.5033 105.179 46.3311 105.783 46.3311C106.431 46.3742 106.971 46.5248 107.424 46.8692Z" fill="white"/>
<path d="M99.1981 46.9124H99.7379V44.3298C97.8808 44.3298 96.5852 44.997 95.8078 46.3098V44.5235H93.2812V55.564H95.8078V50.3773C95.8078 49.3228 96.1101 48.4835 96.6931 47.8809C97.2762 47.2352 98.1184 46.9124 99.1981 46.9124Z" fill="white"/>
<path d="M90.6014 46.8692C90.4286 46.5894 90.2558 46.3311 90.0615 46.0729C89.0897 44.8892 87.7725 44.2866 86.0881 44.2866C84.5118 44.2866 83.2377 44.8462 82.1796 45.9868C81.9204 46.2881 81.7045 46.5679 81.5101 46.8907C80.9703 47.8161 80.668 48.8707 80.668 50.0759V50.1189C80.668 51.7976 81.2078 53.1749 82.3091 54.2725C83.3673 55.3271 84.7277 55.8651 86.3473 55.8651C88.226 55.8651 89.716 55.1764 90.8821 53.7775L89.3921 52.4647C88.4851 53.3471 87.4918 53.7775 86.3905 53.7775C85.5483 53.7775 84.8573 53.5408 84.2742 53.0458C83.6912 52.5508 83.3241 51.8621 83.1945 50.9798H91.3356L91.4003 50.2696C91.3787 48.9352 91.1196 47.8161 90.6014 46.8692ZM86.0234 46.3742C86.6712 46.3742 87.211 46.5464 87.6645 46.8907L87.9884 47.2135C88.4635 47.73 88.7442 48.4187 88.8306 49.2796H83.1513C83.2593 48.4187 83.5832 47.7085 84.0799 47.1705L84.4038 46.8692C84.9005 46.5248 85.4187 46.3742 86.0234 46.3742Z" fill="white"/>
<path d="M78.8573 48.5263C78.8573 47.9237 78.771 47.3857 78.5766 46.8907C78.4039 46.3742 78.08 45.9007 77.6913 45.4918C76.9139 44.717 75.9205 44.3081 74.7112 44.3081C73.178 44.3081 71.9904 44.9753 71.213 46.2665C70.5219 44.9753 69.3774 44.3081 67.8011 44.3081C66.9589 44.3081 66.1815 44.5448 65.4473 45.0398C65.1234 45.255 64.7994 45.5348 64.5403 45.8576V44.5448H61.9922V55.5853H64.5403V49.3441C64.5403 48.4832 64.7347 47.8161 65.1666 47.3426C65.3177 47.1704 65.4689 47.0198 65.6848 46.9122C66.0087 46.74 66.3974 46.6109 66.8509 46.6109C67.2828 46.6109 67.6931 46.7185 68.017 46.9122C68.1898 47.0198 68.3625 47.1704 68.5137 47.3426C68.9456 47.8161 69.1615 48.4832 69.1615 49.3441V55.5853H71.688V49.3441C71.688 48.4832 71.904 47.8161 72.3359 47.3211C72.487 47.1489 72.6382 47.0198 72.8541 46.8907C73.178 46.7185 73.5667 46.5894 73.9986 46.5894C74.4521 46.5894 74.8624 46.697 75.1863 46.8907C75.3591 47.0198 75.5318 47.1704 75.7046 47.3211C76.1149 47.8161 76.3308 48.4617 76.3308 49.3226V55.5638H78.8573V48.5263V48.5263Z" fill="white"/>
<path d="M54.2445 50.0111L55.7345 48.5477C56.6415 47.6438 57.1165 46.5462 57.0949 45.2334C57.0949 43.9852 56.6415 42.9091 55.7345 42.0267C54.8059 41.1228 53.7046 40.6709 52.3874 40.6709C52.4522 39.4011 51.9987 38.3035 51.0485 37.3566C50.1416 36.4742 49.0835 36.0223 47.8094 36.0007C46.5137 35.9792 45.4124 36.4312 44.4839 37.3566L43.037 38.82L41.5902 37.3566C40.6401 36.4312 39.5604 35.9792 38.2647 36.0007C37.0338 36.0007 35.9325 36.4742 35.0471 37.3566C34.1402 38.2605 33.6651 39.3796 33.6867 40.6709C32.4126 40.6278 31.2897 41.0798 30.3396 42.0267C29.4758 42.9091 29.0223 43.9852 29.0007 45.2334C28.9791 46.5247 29.4326 47.6223 30.3396 48.5477L31.8296 50.0111L30.3396 51.4746C29.4326 52.3785 28.9791 53.4761 29.0007 54.7458C29.0223 56.0156 29.4758 57.0916 30.3396 57.9525C31.2897 58.8994 32.4126 59.3514 33.6867 59.3083C33.6651 60.5996 34.1186 61.7187 35.0471 62.6226C35.9541 63.5265 37.0338 63.9785 38.2647 64C39.5388 64 40.6401 63.5696 41.5902 62.6226L43.037 61.1807L44.5055 62.6226C45.4124 63.5481 46.5137 64 47.831 63.9785C49.105 63.957 50.1632 63.5265 51.0485 62.6226C51.9987 61.6972 52.4306 60.5781 52.3874 59.3083C53.7046 59.3299 54.8059 58.8779 55.7345 57.9525C56.6415 57.0486 57.0949 55.9725 57.0949 54.7458C57.1165 53.4761 56.6631 52.3785 55.7345 51.4531L54.2445 50.0111ZM52.5385 43.2534C53.0784 43.2965 53.5103 43.4902 53.899 43.856C54.3309 44.2865 54.5252 44.7599 54.5036 45.3625C54.4604 45.9006 54.2877 46.3525 53.899 46.7399L52.409 48.2033L49.5801 45.3195L51.0485 43.856C51.4588 43.4256 51.9771 43.2319 52.5385 43.2534ZM35.479 50.0111L38.3295 47.1488L41.2015 50.0111L38.3511 52.8519L35.479 50.0111ZM40.165 45.3195L43.037 42.4571L45.9091 45.298L43.037 48.1818L40.165 45.3195ZM43.037 51.8189L45.9091 54.6597L43.037 57.5221L40.165 54.6813L43.037 51.8189ZM44.8726 50.0111L47.7446 47.1488L50.5951 50.0111L47.7446 52.8519L44.8726 50.0111ZM46.3194 39.1859C46.7297 38.777 47.2047 38.5833 47.7662 38.5833C48.3061 38.5833 48.8027 38.777 49.1914 39.1859C49.6017 39.5948 49.7961 40.0898 49.7745 40.6493C49.7745 41.1874 49.5801 41.6608 49.1914 42.0267L47.723 43.4902L44.8726 40.6278L46.3194 39.1859ZM36.8827 39.1859C37.3145 38.7555 37.7896 38.5833 38.3943 38.5833C38.9341 38.6048 39.3876 38.7985 39.7763 39.1859L41.2447 40.6493L38.3511 43.4902L36.8827 42.0267C36.4508 41.5963 36.2564 41.1013 36.278 40.5202C36.2996 39.9822 36.5156 39.5518 36.8827 39.1859ZM32.1967 46.7184C31.7864 46.3095 31.5921 45.8145 31.5921 45.2764C31.5921 44.7169 31.7864 44.2434 32.1967 43.856C32.607 43.4471 33.1037 43.2534 33.6651 43.2749C34.205 43.2749 34.68 43.4686 35.0471 43.856L36.5156 45.3195L33.6435 48.1818L32.1967 46.7184ZM33.6435 56.7473C33.0821 56.7473 32.5854 56.5751 32.1751 56.1447C31.7648 55.7573 31.5705 55.2839 31.5705 54.7243C31.5705 54.1863 31.7648 53.6913 32.1751 53.3039L33.6435 51.8404L36.494 54.6813L35.0471 56.1447C34.6584 56.5106 34.1834 56.7258 33.6435 56.7473ZM39.7547 60.8364C39.366 61.2022 38.9125 61.3959 38.3727 61.4174C37.7896 61.439 37.293 61.2453 36.8611 60.8364C36.494 60.449 36.2996 60.0186 36.2564 59.4805C36.2348 58.8994 36.4292 58.4045 36.8611 57.974L38.3295 56.5106L41.2015 59.3514L39.7547 60.8364ZM49.213 60.8364C48.8027 61.2237 48.3277 61.4174 47.7878 61.4174C47.2263 61.4174 46.7513 61.2237 46.341 60.8364L44.8726 59.3514L47.7446 56.5106L49.213 57.974C49.6017 58.3614 49.7961 58.8349 49.7961 59.3729C49.8177 59.9109 49.6017 60.4059 49.213 60.8364ZM53.899 56.1447C53.5103 56.5106 53.0784 56.7043 52.5385 56.7473C51.9771 56.7688 51.4588 56.5751 51.0269 56.1447L49.5585 54.6813L52.3874 51.8404L53.8774 53.3039C54.2661 53.6698 54.4388 54.1217 54.482 54.6813C54.5252 55.2193 54.3093 55.7143 53.899 56.1447Z" fill="white"/>
</svg>
